<svg width="200" height="59" viewBox="0 0 200 59" fill="none" xmlns="http://www.w3.org/2000/svg">
<path d="M197.804 52.0345C197.804 52.7771 197.658 53.5123 197.373 54.1983C197.089 54.8843 196.672 55.5075 196.146 56.0323C195.621 56.5571 194.997 56.9732 194.311 57.2568C193.624 57.5405 192.889 57.6861 192.146 57.6853H6.97906C5.47827 57.6869 4.03831 57.0924 2.97585 56.0327C1.91339 54.9731 1.31543 53.5349 1.31348 52.0345V6.97117C1.31543 5.4701 1.91316 4.03116 2.9754 2.9703C4.03765 1.90944 5.4776 1.31338 6.97906 1.31299H192.144C192.887 1.31299 193.623 1.45935 194.31 1.74372C194.997 2.02809 195.62 2.44489 196.146 2.97032C196.671 3.49575 197.088 4.11952 197.372 4.80599C197.656 5.49246 197.803 6.2282 197.803 6.97117L197.804 52.0345Z" fill="#02021E"/>
<path d="M44.4628 29.1892C44.42 24.434 48.3574 22.1205 48.5375 22.0128C46.3075 18.7625 42.8512 18.3184 41.6366 18.283C38.7337 17.9776 35.9179 20.0195 34.4392 20.0195C32.9309 20.0195 30.6538 18.3125 28.1995 18.3627C25.0413 18.4114 22.0868 20.2394 20.4663 23.0781C17.1222 28.8661 19.6163 37.3718 22.8202 42.0503C24.4229 44.3431 26.2957 46.9 28.747 46.81C31.1452 46.7126 32.041 45.2829 34.935 45.2829C37.8025 45.2829 38.6437 46.81 41.1437 46.7524C43.7175 46.7126 45.3379 44.4508 46.8846 42.1388C48.7367 39.5141 49.4805 36.9262 49.51 36.7934C49.451 36.7728 44.513 34.8872 44.4628 29.1892ZM39.7402 15.2053C41.0301 13.5927 41.9126 11.3988 41.6676 9.17236C39.8007 9.25499 37.466 10.4633 36.1216 12.0406C34.9321 13.4304 33.8695 15.7084 34.144 17.8507C36.2411 18.0071 38.3943 16.7928 39.7402 15.2053Z" fill="white"/>
<path d="M79.1986 46.481H75.8471L74.0112 40.7137H67.6298L65.881 46.481H62.618L68.9418 26.8463H72.8468L79.1986 46.481ZM73.4578 38.294L71.7975 33.167C71.6219 32.6432 71.2913 31.4097 70.8072 29.4681H70.7482C70.5534 30.3032 70.242 31.5366 69.8155 33.167L68.1833 38.294H73.4578ZM95.4294 39.2279C95.4294 41.6358 94.7757 43.5391 93.4666 44.9363C92.2948 46.18 90.8382 46.8012 89.1012 46.8012C87.2255 46.8012 85.8766 46.1328 85.0575 44.7932V52.2218H81.9111V36.9765C81.9111 35.4642 81.8713 33.9135 81.7945 32.323H84.5617L84.7373 34.5671H84.7963C85.8456 32.8763 87.438 32.0309 89.5749 32.0309C91.2455 32.0309 92.6402 32.6904 93.7559 34.0109C94.8701 35.3343 95.4294 37.0724 95.4294 39.2279ZM92.224 39.343C92.224 37.965 91.9141 36.8289 91.2913 35.9333C90.611 35.0024 89.6974 34.5361 88.5522 34.5361C87.7759 34.5361 87.0705 34.7958 86.4403 35.3078C85.8087 35.8242 85.3955 36.4984 85.2022 37.3335C85.1159 37.6458 85.0668 37.9672 85.0561 38.291V40.6532C85.0561 41.6815 85.3719 42.5505 86.0035 43.2617C86.6352 43.9699 87.4557 44.3254 88.4651 44.3254C89.6502 44.3254 90.5726 43.8666 91.2323 42.9563C91.8934 42.043 92.224 40.8391 92.224 39.343ZM111.718 39.2279C111.718 41.6358 111.064 43.5391 109.755 44.9363C108.582 46.18 107.127 46.8012 105.388 46.8012C103.512 46.8012 102.163 46.1328 101.344 44.7932V52.2218H98.198V36.9765C98.198 35.4642 98.1582 33.9135 98.0814 32.323H100.849L101.024 34.5671H101.083C102.131 32.8763 103.723 32.0309 105.862 32.0309C107.531 32.0309 108.926 32.6904 110.044 34.0109C111.157 35.3343 111.718 37.0724 111.718 39.2279ZM108.511 39.343C108.511 37.965 108.199 36.8289 107.577 35.9333C106.896 35.0024 105.986 34.5361 104.841 34.5361C104.064 34.5361 103.359 34.7958 102.726 35.3078C102.094 35.8242 101.682 36.4984 101.489 37.3335C101.393 37.723 101.341 38.0402 101.341 38.291V40.6532C101.341 41.6815 101.659 42.5505 102.287 43.2617C102.919 43.9684 103.74 44.3254 104.752 44.3254C105.939 44.3254 106.861 43.8666 107.519 42.9563C108.18 42.043 108.511 40.8391 108.511 39.343ZM129.929 40.9733C129.929 42.645 129.345 44.0038 128.183 45.0528C126.905 46.1977 125.121 46.7717 122.833 46.7717C120.72 46.7717 119.026 46.3645 117.748 45.5486L118.475 42.9268C119.855 43.7441 121.371 44.1514 123.021 44.1514C124.207 44.1514 125.13 43.8828 125.788 43.3502C126.448 42.8161 126.781 42.102 126.781 41.2109C126.781 40.4127 126.505 39.7443 125.964 39.1999C125.419 38.6569 124.519 38.1509 123.254 37.6861C119.815 36.404 118.095 34.5288 118.095 32.0619C118.095 30.4507 118.703 29.1317 119.916 28.1004C121.129 27.0706 122.738 26.5557 124.739 26.5557C126.526 26.5557 128.015 26.867 129.197 27.4881L128.408 30.0524C127.295 29.4504 126.039 29.1494 124.634 29.1494C123.524 29.1494 122.653 29.4224 122.031 29.9653C121.507 30.4507 121.241 31.0424 121.241 31.7447C121.241 32.5193 121.544 33.1625 122.146 33.6671C122.668 34.1319 123.622 34.6379 125 35.1809C126.691 35.8625 127.934 36.6563 128.729 37.5681C129.531 38.4799 129.929 39.6174 129.929 40.9733ZM140.359 34.6837H136.89V41.5576C136.89 43.3059 137.501 44.1779 138.726 44.1779C139.289 44.1779 139.755 44.1307 140.124 44.0318L140.211 46.4205C139.591 46.6522 138.775 46.7687 137.764 46.7687C136.522 46.7687 135.55 46.3895 134.849 45.6312C134.151 44.8728 133.8 43.6025 133.8 41.8143V34.6778H131.734V32.3171H133.8V29.7248L136.89 28.7924V32.3171H140.359V34.6837ZM155.975 39.2855C155.975 41.4617 155.353 43.2484 154.11 44.6456C152.81 46.0841 151.08 46.8012 148.924 46.8012C146.843 46.8012 145.189 46.1122 143.955 44.7356C142.721 43.3561 142.104 41.6181 142.104 39.5215C142.104 37.3276 142.742 35.5306 144.013 34.1333C145.286 32.7347 147.001 32.0353 149.157 32.0353C151.235 32.0353 152.904 32.7258 154.168 34.1038C155.375 35.4406 155.975 37.1668 155.975 39.2855ZM152.714 39.3578C152.714 38.0609 152.434 36.9484 151.871 36.0174C151.212 34.8932 150.267 34.331 149.044 34.331C147.783 34.331 146.817 34.8932 146.158 36.0174C145.595 36.9484 145.314 38.0801 145.314 39.4168C145.314 40.7151 145.595 41.8305 146.158 42.7586C146.839 43.8828 147.788 44.445 149.017 44.445C150.22 44.445 151.163 43.871 151.845 42.7305C152.423 41.7774 152.714 40.6576 152.714 39.3578ZM166.207 35.0894C165.88 35.0303 165.548 35.0012 165.215 35.0024C164.109 35.0024 163.253 35.4184 162.65 36.2565C162.128 36.9942 161.865 37.9266 161.865 39.0523V46.481H158.719V36.7817C158.722 35.2955 158.691 33.8094 158.627 32.3245H161.368L161.483 35.0333H161.57C161.904 34.1024 162.426 33.3514 163.143 32.7893C163.8 32.2981 164.598 32.0321 165.418 32.0309C165.708 32.0309 165.971 32.0516 166.204 32.0884L166.207 35.0894ZM180.279 38.7322C180.287 39.2104 180.248 39.6882 180.164 40.1589H170.725C170.76 41.5576 171.217 42.6287 172.094 43.3664C172.89 44.0245 173.918 44.355 175.181 44.355C176.579 44.355 177.854 44.1336 179.001 43.6866L179.494 45.8687C178.154 46.453 176.572 46.7436 174.746 46.7436C172.55 46.7436 170.826 46.0974 169.572 44.8079C168.32 43.5169 167.693 41.7819 167.693 39.6086C167.693 37.4751 168.276 35.6973 169.444 34.2794C170.666 32.7656 172.317 32.0088 174.395 32.0088C176.436 32.0088 177.981 32.7656 179.03 34.2794C179.861 35.4789 180.279 36.9661 180.279 38.7322ZM177.279 37.9163C177.301 36.9824 177.094 36.1783 176.668 35.4981C176.123 34.6217 175.285 34.185 174.162 34.185C173.133 34.185 172.295 34.6114 171.657 35.4671C171.133 36.1473 170.822 36.9647 170.726 37.9133L177.279 37.9163Z" fill="white"/>
<path d="M66.7222 19.9048C65.8471 19.9048 65.09 19.862 64.4598 19.7897V10.297C65.3412 10.1609 66.2318 10.0938 67.1237 10.0963C70.732 10.0963 72.3937 11.8712 72.3937 14.7645C72.3937 18.1019 70.4309 19.9048 66.7222 19.9048ZM67.2506 11.3135C66.7636 11.3135 66.3489 11.343 66.005 11.4139V18.6301C66.1909 18.6596 66.5481 18.6729 67.0499 18.6729C69.4141 18.6729 70.76 17.3273 70.76 14.8073C70.76 12.5603 69.5425 11.3135 67.2506 11.3135ZM77.5723 19.9771C75.5386 19.9771 74.2208 18.4589 74.2208 16.3978C74.2208 14.2496 75.5667 12.7181 77.6874 12.7181C79.6915 12.7181 81.0389 14.164 81.0389 16.2842C81.0389 18.4589 79.6502 19.9771 77.5723 19.9771ZM77.6313 13.8483C76.5141 13.8483 75.7984 14.8929 75.7984 16.3535C75.7984 17.7861 76.5289 18.8307 77.6166 18.8307C78.7042 18.8307 79.4347 17.7138 79.4347 16.324C79.4347 14.9076 78.719 13.8483 77.6313 13.8483ZM92.6357 12.8612L90.4589 19.8192H89.0407L88.139 16.7976C87.9148 16.0585 87.7281 15.3085 87.5797 14.5506H87.5502C87.4365 15.3089 87.221 16.0688 86.9923 16.7976L86.033 19.8192H84.6L82.5516 12.8612H84.1411L84.9291 16.1691C85.1151 16.957 85.2715 17.7006 85.4014 18.4029H85.4309C85.5445 17.8171 85.7305 17.0853 86.0035 16.1838L86.9923 12.8627H88.2526L89.1986 16.113C89.4274 16.9009 89.6133 17.674 89.7579 18.4043H89.7993C89.8996 17.6888 90.0575 16.9289 90.2715 16.113L91.1172 12.8627L92.6357 12.8612ZM100.649 19.8192H99.1027V15.8239C99.1027 14.5934 98.6304 13.9766 97.6992 13.9766C96.7827 13.9766 96.1526 14.7645 96.1526 15.6807V19.8192H94.6059V14.8501C94.6059 14.2348 94.5912 13.5753 94.5484 12.8598H95.9091L95.9814 13.9339H96.0242C96.4404 13.1903 97.2845 12.7181 98.2305 12.7181C99.6915 12.7181 100.651 13.835 100.651 15.6527L100.649 19.8192ZM104.914 19.8192H103.366V9.66846H104.914V19.8192ZM110.553 19.9771C108.521 19.9771 107.202 18.4589 107.202 16.3978C107.202 14.2496 108.548 12.7181 110.667 12.7181C112.673 12.7181 114.019 14.164 114.019 16.2842C114.02 18.4589 112.63 19.9771 110.553 19.9771ZM110.611 13.8483C109.494 13.8483 108.778 14.8929 108.778 16.3535C108.778 17.7861 109.51 18.8307 110.595 18.8307C111.684 18.8307 112.413 17.7138 112.413 16.324C112.414 14.9076 111.7 13.8483 110.611 13.8483ZM120.117 19.8192L120.004 19.0181H119.963C119.491 19.6629 118.802 19.9771 117.928 19.9771C116.681 19.9771 115.795 19.1037 115.795 17.9293C115.795 16.2119 117.285 15.3237 119.863 15.3237V15.1953C119.863 14.2791 119.377 13.8202 118.418 13.8202C117.732 13.8202 117.13 13.9929 116.6 14.3366L116.285 13.3201C116.929 12.9188 117.732 12.7181 118.675 12.7181C120.493 12.7181 121.411 13.6771 121.411 15.5966V18.1594C121.411 18.8617 121.442 19.4061 121.511 19.8207L120.117 19.8192ZM119.904 16.3535C118.186 16.3535 117.324 16.7696 117.324 17.7566C117.324 18.487 117.769 18.844 118.385 18.844C119.172 18.844 119.904 18.2435 119.904 17.4276V16.3535ZM128.921 19.8192L128.849 18.7024H128.806C128.362 19.5463 127.615 19.9771 126.572 19.9771C124.894 19.9771 123.651 18.5017 123.651 16.4258C123.651 14.2496 124.939 12.7166 126.699 12.7166C127.63 12.7166 128.29 13.0309 128.661 13.6624H128.692V9.66846H130.241V17.944C130.241 18.6168 130.257 19.2468 130.298 19.8192H128.921ZM128.692 15.725C128.692 14.7512 128.047 13.9206 127.063 13.9206C125.916 13.9206 125.215 14.9371 125.215 16.3683C125.215 17.7714 125.943 18.7319 127.032 18.7319C128.005 18.7319 128.692 17.8865 128.692 16.8847V15.725ZM140.056 19.9771C138.024 19.9771 136.706 18.4589 136.706 16.3978C136.706 14.2496 138.052 12.7181 140.171 12.7181C142.177 12.7181 143.523 14.164 143.523 16.2842C143.524 18.4589 142.135 19.9771 140.056 19.9771ZM140.114 13.8483C138.998 13.8483 138.282 14.8929 138.282 16.3535C138.282 17.7861 139.013 18.8307 140.099 18.8307C141.188 18.8307 141.917 17.7138 141.917 16.324C141.92 14.9076 141.204 13.8483 140.114 13.8483ZM151.84 19.8192H150.292V15.8239C150.292 14.5934 149.82 13.9766 148.889 13.9766C147.972 13.9766 147.344 14.7645 147.344 15.6807V19.8192H145.795V14.8501C145.795 14.2348 145.781 13.5753 145.738 12.8598H147.099L147.171 13.9339H147.214C147.628 13.1903 148.474 12.7166 149.418 12.7166C150.88 12.7166 151.84 13.8335 151.84 15.6512V19.8192ZM162.246 14.0209H160.545V17.3996C160.545 18.2597 160.843 18.6891 161.445 18.6891C161.718 18.6891 161.947 18.6596 162.131 18.6168L162.174 19.7912C161.874 19.9063 161.473 19.9638 160.974 19.9638C159.755 19.9638 159.026 19.2911 159.026 17.5294V14.0209H158.011V12.8612H159.026V11.5865L160.545 11.1276V12.8598H162.246V14.0209ZM170.434 19.8192H168.889V15.8534C168.889 14.6081 168.418 13.9781 167.485 13.9781C166.684 13.9781 165.937 14.5225 165.937 15.6247V19.8192H164.392V9.66846H165.937V13.8483H165.968C166.455 13.0899 167.161 12.7166 168.061 12.7166C169.534 12.7166 170.434 13.8616 170.434 15.6807V19.8192ZM178.822 16.712H174.181C174.21 18.0296 175.083 18.7732 176.374 18.7732C177.06 18.7732 177.692 18.6581 178.25 18.4442L178.49 19.5183C177.832 19.8045 177.057 19.9476 176.156 19.9476C173.979 19.9476 172.69 18.5725 172.69 16.4406C172.69 14.3071 174.01 12.7034 175.981 12.7034C177.76 12.7034 178.875 14.0209 178.875 16.0112C178.885 16.2461 178.868 16.4814 178.822 16.712ZM177.404 15.6099C177.404 14.5358 176.862 13.7775 175.874 13.7775C174.985 13.7775 174.283 14.5506 174.182 15.6099H177.404Z" fill="white"/>
</svg>
