<svg width="200" height="59" viewBox="0 0 200 59" fill="none" xmlns="http://www.w3.org/2000/svg">
<path d="M191.75 59H7.375C3.245 59 0 55.755 0 51.625V7.375C0 3.245 3.245 0 7.375 0H191.75C195.88 0 199.125 3.245 199.125 7.375V51.625C199.125 55.755 195.88 59 191.75 59Z" fill="#02021E"/>
<path d="M69.915 15.0447C69.915 16.2247 69.62 17.2572 68.8825 17.9947C67.9975 18.8797 66.965 19.3222 65.6375 19.3222C64.31 19.3222 63.2775 18.8797 62.3925 17.9947C61.5075 17.1097 61.065 16.0772 61.065 14.7497C61.065 13.4222 61.5075 12.3897 62.3925 11.5047C63.2775 10.6197 64.31 10.1772 65.6375 10.1772C66.2275 10.1772 66.8175 10.3247 67.4075 10.6197C67.9975 10.9147 68.44 11.2097 68.735 11.6522L67.9975 12.3897C67.4075 11.6522 66.67 11.3572 65.6375 11.3572C64.7525 11.3572 63.8675 11.6522 63.2775 12.3897C62.54 12.9797 62.245 13.8647 62.245 14.8972C62.245 15.9297 62.54 16.8147 63.2775 17.4047C64.015 17.9947 64.7525 18.4372 65.6375 18.4372C66.67 18.4372 67.4075 18.1422 68.145 17.4047C68.5875 16.9622 68.8825 16.3722 68.8825 15.6347H65.6375V14.4547H69.915V15.0447ZM76.7 11.3572H72.7175V14.1597H76.405V15.1922H72.7175V17.9947H76.7V19.1747H71.5375V10.3247H76.7V11.3572ZM81.5675 19.1747H80.3875V11.3572H77.88V10.3247H84.075V11.3572H81.5675V19.1747ZM88.3525 19.1747V10.3247H89.5325V19.1747H88.3525ZM94.5475 19.1747H93.3675V11.3572H90.86V10.3247H96.9075V11.3572H94.4V19.1747H94.5475ZM108.56 17.9947C107.675 18.8797 106.643 19.3222 105.315 19.3222C103.988 19.3222 102.955 18.8797 102.07 17.9947C101.185 17.1097 100.743 16.0772 100.743 14.7497C100.743 13.4222 101.185 12.3897 102.07 11.5047C102.955 10.6197 103.988 10.1772 105.315 10.1772C106.643 10.1772 107.675 10.6197 108.56 11.5047C109.445 12.3897 109.888 13.4222 109.888 14.7497C109.888 16.0772 109.445 17.1097 108.56 17.9947ZM102.955 17.2572C103.545 17.8472 104.43 18.2897 105.315 18.2897C106.2 18.2897 107.085 17.9947 107.675 17.2572C108.265 16.6672 108.707 15.7822 108.707 14.7497C108.707 13.7172 108.413 12.8322 107.675 12.2422C107.085 11.6522 106.2 11.2097 105.315 11.2097C104.43 11.2097 103.545 11.5047 102.955 12.2422C102.365 12.8322 101.922 13.7172 101.922 14.7497C101.922 15.7822 102.218 16.6672 102.955 17.2572ZM111.51 19.1747V10.3247H112.838L117.115 17.2572V10.3247H118.295V19.1747H117.115L112.543 11.9472V19.1747H111.51Z" fill="white" stroke="white" stroke-width="1.18519" stroke-miterlimit="10"/>
<path d="M100.447 32.1552C96.9075 32.1552 94.105 34.8102 94.105 38.4977C94.105 42.0377 96.9075 44.8402 100.447 44.8402C103.987 44.8402 106.79 42.1852 106.79 38.4977C106.79 34.6627 103.987 32.1552 100.447 32.1552ZM100.447 42.1852C98.53 42.1852 96.9075 40.5627 96.9075 38.3502C96.9075 36.1377 98.53 34.5152 100.447 34.5152C102.365 34.5152 103.987 35.9902 103.987 38.3502C103.987 40.5627 102.365 42.1852 100.447 42.1852ZM86.73 32.1552C83.19 32.1552 80.3875 34.8102 80.3875 38.4977C80.3875 42.0377 83.19 44.8402 86.73 44.8402C90.27 44.8402 93.0725 42.1852 93.0725 38.4977C93.0725 34.6627 90.27 32.1552 86.73 32.1552ZM86.73 42.1852C84.8125 42.1852 83.19 40.5627 83.19 38.3502C83.19 36.1377 84.8125 34.5152 86.73 34.5152C88.6475 34.5152 90.27 35.9902 90.27 38.3502C90.27 40.5627 88.6475 42.1852 86.73 42.1852ZM70.3575 34.0727V36.7277H76.7C76.5525 38.2027 75.9625 39.3827 75.225 40.1202C74.34 41.0052 72.865 42.0377 70.3575 42.0377C66.375 42.0377 63.425 38.9402 63.425 34.9577C63.425 30.9752 66.5225 27.8777 70.3575 27.8777C72.4225 27.8777 74.045 28.7627 75.225 29.7952L77.1425 27.8777C75.52 26.4027 73.455 25.2227 70.505 25.2227C65.195 25.2227 60.6225 29.6477 60.6225 34.9577C60.6225 40.2677 65.195 44.6927 70.505 44.6927C73.455 44.6927 75.52 43.8077 77.29 41.8902C79.06 40.1202 79.65 37.6127 79.65 35.6952C79.65 35.1052 79.65 34.5152 79.5025 34.0727H70.3575ZM137.323 36.1377C136.732 34.6627 135.257 32.1552 132.013 32.1552C128.768 32.1552 126.113 34.6627 126.113 38.4977C126.113 42.0377 128.767 44.8402 132.307 44.8402C135.11 44.8402 136.88 43.0702 137.47 42.0377L135.405 40.5627C134.668 41.5952 133.782 42.3327 132.307 42.3327C130.832 42.3327 129.948 41.7427 129.21 40.4152L137.618 36.8752L137.323 36.1377ZM128.768 38.2027C128.768 35.8427 130.685 34.5152 132.013 34.5152C133.045 34.5152 134.077 35.1052 134.372 35.8427L128.768 38.2027ZM121.835 44.2502H124.638V25.8127H121.835V44.2502ZM117.41 33.4827C116.672 32.7452 115.493 32.0077 114.018 32.0077C110.92 32.0077 107.97 34.8102 107.97 38.3502C107.97 41.8902 110.773 44.5452 114.018 44.5452C115.493 44.5452 116.673 43.8077 117.263 43.0702H117.41V43.9552C117.41 46.3152 116.083 47.6427 114.018 47.6427C112.395 47.6427 111.215 46.4627 110.92 45.4302L108.56 46.4627C109.297 48.0852 111.068 50.1502 114.165 50.1502C117.41 50.1502 120.065 48.2327 120.065 43.6602V32.4502H117.41V33.4827ZM114.165 42.1852C112.248 42.1852 110.625 40.5627 110.625 38.3502C110.625 36.1377 112.248 34.5152 114.165 34.5152C116.083 34.5152 117.557 36.1377 117.557 38.3502C117.557 40.5627 116.083 42.1852 114.165 42.1852ZM150.155 25.8127H143.518V44.2502H146.32V37.3177H150.155C153.253 37.3177 156.203 35.1052 156.203 31.5652C156.203 28.0252 153.253 25.8127 150.155 25.8127ZM150.303 34.6627H146.32V28.3202H150.303C152.368 28.3202 153.548 30.0902 153.548 31.4177C153.4 33.0402 152.22 34.6627 150.303 34.6627ZM167.265 32.0077C165.2 32.0077 163.135 32.8927 162.397 34.8102L164.905 35.8427C165.495 34.8102 166.38 34.5152 167.412 34.5152C168.888 34.5152 170.215 35.4002 170.363 36.8752V37.0227C169.92 36.7277 168.74 36.2852 167.56 36.2852C164.905 36.2852 162.25 37.7602 162.25 40.4152C162.25 42.9227 164.463 44.5452 166.823 44.5452C168.74 44.5452 169.625 43.6602 170.363 42.7752H170.51V44.2502H173.165V37.1702C172.87 33.9252 170.363 32.0077 167.265 32.0077ZM166.97 42.1852C166.085 42.1852 164.757 41.7427 164.757 40.5627C164.757 39.0877 166.38 38.6452 167.707 38.6452C168.887 38.6452 169.478 38.9402 170.215 39.2352C169.92 41.0052 168.445 42.1852 166.97 42.1852ZM182.457 32.4502L179.36 40.4152H179.213L175.968 32.4502H173.018L177.885 43.6602L175.082 49.8552H177.885L185.407 32.4502H182.457ZM157.678 44.2502H160.48V25.8127H157.678V44.2502Z" fill="white"/>
<path d="M15.34 11.0625C14.8975 11.505 14.75 12.2425 14.75 13.1275V45.725C14.75 46.61 15.045 47.3475 15.4875 47.79L15.635 47.9375L33.925 29.6475V29.3525L15.34 11.0625Z" fill="url(#paint0_linear_112_364)"/>
<path d="M39.825 35.8422L33.7775 29.7947V29.3522L39.825 23.3047L39.9725 23.4522L47.2 27.5822C49.265 28.7622 49.265 30.6797 47.2 31.8597L39.825 35.8422Z" fill="url(#paint1_linear_112_364)"/>
<path d="M39.9725 35.695L33.7775 29.5L15.34 47.9375C16.0775 48.675 17.11 48.675 18.4375 48.085L39.9725 35.695Z" fill="url(#paint2_linear_112_364)"/>
<path d="M39.9725 23.305L18.4375 11.0625C17.11 10.325 16.0775 10.4725 15.34 11.21L33.7775 29.5L39.9725 23.305Z" fill="url(#paint3_linear_112_364)"/>
<path opacity="0.2" d="M39.825 35.5474L18.4375 47.6424C17.2575 48.3799 16.225 48.2324 15.4875 47.6424L15.34 47.7899L15.4875 47.9374C16.225 48.5274 17.2575 48.6749 18.4375 47.9374L39.825 35.5474Z" fill="black"/>
<path opacity="0.12" d="M15.34 47.6425C14.8975 47.2 14.75 46.4625 14.75 45.5775V45.725C14.75 46.61 15.045 47.3475 15.4875 47.79V47.6425H15.34ZM47.2 31.4175L39.825 35.5475L39.9725 35.695L47.2 31.565C48.2325 30.975 48.675 30.2375 48.675 29.5C48.675 30.2375 48.085 30.8275 47.2 31.4175Z" fill="black"/>
<path opacity="0.25" d="M18.4375 11.2099L47.2 27.5824C48.085 28.1724 48.675 28.7624 48.675 29.4999C48.675 28.7624 48.2325 28.0249 47.2 27.4349L18.4375 11.0624C16.3725 9.88239 14.75 10.7674 14.75 13.1274V13.2749C14.75 11.0624 16.3725 10.0299 18.4375 11.2099Z" fill="white"/>
<defs>
<linearGradient id="paint0_linear_112_364" x1="32.155" y1="12.8472" x2="7.40007" y2="37.6007" gradientUnits="userSpaceOnUse">
<stop stop-color="#00A0FF"/>
<stop offset="0.007" stop-color="#00A1FF"/>
<stop offset="0.26" stop-color="#00BEFF"/>
<stop offset="0.512" stop-color="#00D2FF"/>
<stop offset="0.76" stop-color="#00DFFF"/>
<stop offset="1" stop-color="#00E3FF"/>
</linearGradient>
<linearGradient id="paint1_linear_112_364" x1="49.9051" y1="29.5012" x2="14.2146" y2="29.5012" gradientUnits="userSpaceOnUse">
<stop stop-color="#FFE000"/>
<stop offset="0.409" stop-color="#FFBD00"/>
<stop offset="0.775" stop-color="#FFA500"/>
<stop offset="1" stop-color="#FF9C00"/>
</linearGradient>
<linearGradient id="paint2_linear_112_364" x1="36.6199" y1="32.8866" x2="3.0518" y2="66.4547" gradientUnits="userSpaceOnUse">
<stop stop-color="#FF3A44"/>
<stop offset="1" stop-color="#C31162"/>
</linearGradient>
<linearGradient id="paint3_linear_112_364" x1="10.7631" y1="0.259607" x2="25.7535" y2="15.25" gradientUnits="userSpaceOnUse">
<stop stop-color="#32A071"/>
<stop offset="0.069" stop-color="#2DA771"/>
<stop offset="0.476" stop-color="#15CF74"/>
<stop offset="0.801" stop-color="#06E775"/>
<stop offset="1" stop-color="#00F076"/>
</linearGradient>
</defs>
</svg>
