<svg width="41" height="41" viewBox="0 0 41 41" fill="none" xmlns="http://www.w3.org/2000/svg">
<mask id="mask0_70_303" style="mask-type:luminance" maskUnits="userSpaceOnUse" x="-1" y="0" width="42" height="41">
<path d="M-0.00158691 0H40.9921V40.9937H-0.00158691V0Z" fill="white"/>
</mask>
<g mask="url(#mask0_70_303)">
<path fill-rule="evenodd" clip-rule="evenodd" d="M-10.25 0H51.2406V40.9937H-10.25V0Z" fill="#199D00"/>
<path fill-rule="evenodd" clip-rule="evenodd" d="M5.24664 11.6204C5.18052 12.5791 5.08961 14.2651 5.90783 14.4387C6.89135 14.5296 6.34587 12.7692 6.70126 12.4551C6.77564 12.2898 6.89961 12.2898 6.90788 12.4965V13.9841C6.89961 14.48 7.21368 14.6123 7.46162 14.7197C7.7261 14.6949 7.8914 14.7032 7.99884 14.9511L8.11455 17.538C8.11455 17.538 8.71788 17.7033 8.74268 16.0834C8.77574 15.133 8.55259 14.3313 8.68482 14.1494C8.68482 13.9676 8.91624 13.9593 9.08154 14.042C9.33775 14.2238 9.45346 14.4552 9.85017 14.3561C10.4618 14.1908 10.8254 13.8932 10.842 13.4304C10.8209 12.9746 10.726 12.5252 10.5609 12.0998C10.5857 12.0171 10.437 11.8105 10.47 11.7278C10.5775 11.8931 10.7428 11.8849 10.7841 11.7278C10.6767 11.3807 10.5196 11.0584 10.2551 10.9179C10.0403 10.7278 9.7262 10.7691 9.61049 11.1658C9.59694 11.6868 9.77317 12.1949 10.1064 12.5956C10.2103 12.8202 10.2531 13.0683 10.2304 13.3147C10.0568 13.4221 9.88323 13.3725 9.73446 13.2238C9.73446 13.2238 9.24683 12.8519 9.24683 12.7775C9.37907 11.951 9.27989 11.8601 9.20551 11.6287C9.15592 11.3146 9.00715 11.2154 8.88318 11.0005C8.75921 10.8683 8.60218 10.8683 8.51953 11.0005C8.30464 11.3724 8.40382 12.1659 8.56085 12.5213C8.67656 12.8519 8.84186 13.0585 8.75921 13.0585C8.69309 13.2403 8.56085 13.199 8.46167 12.9841C8.33901 12.5289 8.28059 12.0587 8.28811 11.5873C8.24679 11.2154 8.20546 10.4303 7.95752 10.2319C7.80875 10.0335 7.5856 10.1327 7.51121 10.3145C7.49031 10.6728 7.4986 11.0321 7.53601 11.389C7.7013 11.9675 7.75089 12.4965 7.83354 13.0998C7.85834 13.9098 7.36245 13.4552 7.38724 13.0502C7.50295 12.5295 7.46989 11.703 7.37071 11.4964C7.28806 11.2898 7.19715 11.2402 7.00706 11.2733C6.84176 11.2567 6.45331 11.6865 6.34587 12.4138C6.34587 12.4138 6.24669 12.7857 6.20537 13.1081C6.14751 13.48 5.90783 13.7445 5.73427 13.0585C5.5855 12.5626 5.49459 11.3311 5.24664 11.6204Z" fill="white"/>
<path fill-rule="evenodd" clip-rule="evenodd" d="M7.92441 15.5545L5.3623 16.7859C5.3871 16.2074 6.57724 15.1495 7.3872 15.133C7.91615 15.1495 7.78391 15.3396 7.92441 15.5462V15.5545Z" fill="white"/>
<path fill-rule="evenodd" clip-rule="evenodd" d="M7.47811 16.3562C6.12267 19.8357 10.6353 20.3233 11.1394 16.4967C11.189 16.3396 11.3874 16.1826 11.4122 16.4388C11.3047 19.91 7.92441 20.1415 7.34587 19.0505C7.20537 18.8026 7.16404 18.224 7.14751 17.8769C7.06486 17.1992 6.70121 17.4637 6.65162 18.1414C6.59377 18.5133 6.60203 18.6207 6.60203 18.9844C6.78386 21.7118 11.1477 20.5382 11.8585 18.2819C12.2304 17.0339 11.7924 16.1082 11.999 16.1082C12.4288 16.5793 13.0404 16.1743 13.1726 16.009C13.2305 15.9264 13.371 15.8768 13.4701 15.9842C13.8007 16.2322 14.4041 16.1082 14.528 15.6867C14.5942 15.2652 14.652 14.8354 14.6685 14.3891C14.3958 14.4718 14.1892 14.5296 14.1726 14.6371L14.1148 15.0173C14.09 15.133 13.8503 15.1412 13.8421 14.9842C13.7346 14.5131 13.3048 14.447 13.0404 15.1825C12.8668 15.3313 12.5445 15.3478 12.5114 15.1412C12.5527 14.6453 12.3544 14.5792 11.9577 14.8106L11.5692 11.9179C11.7345 11.9179 11.8915 12.0336 12.0403 11.8435C11.875 11.3229 11.5196 10.2732 11.3295 10.1906C11.2304 10.0749 11.156 10.1492 11.032 10.174C10.8171 10.2402 10.6188 10.422 10.6849 10.7774L11.3461 14.9263C11.3791 15.0999 11.2304 15.3396 11.0403 15.3148C10.7179 15.0916 10.6353 14.6536 10.0898 14.6701C9.68483 14.6701 9.23026 15.1082 9.18067 15.5297C9.10629 15.8603 9.08149 16.2239 9.18067 16.5132C9.45341 16.8438 9.79227 16.819 10.0898 16.7363C10.3295 16.6372 10.5278 16.3975 10.6188 16.4553C10.6766 16.5297 10.627 17.3231 9.46994 17.943C8.77569 18.2571 8.21368 18.3232 7.91615 17.7529C7.73432 17.3975 7.93268 16.0421 7.47811 16.3479V16.3562Z" fill="white"/>
<path fill-rule="evenodd" clip-rule="evenodd" d="M13.2057 12.8105C13.4784 12.7196 14.7595 11.2402 14.7595 11.2402L14.5694 11.0914C14.495 11.0253 14.5033 10.9675 14.5694 10.9014C14.8835 10.7195 14.7843 10.3063 14.619 10.1245C14.5112 10.0706 14.3924 10.0426 14.2719 10.0426C14.1514 10.0426 14.0325 10.0706 13.9247 10.1245C13.7016 10.3476 13.652 10.6865 13.8256 10.9014C13.9909 10.984 14.1727 11.1493 14.057 11.2485C13.528 11.8105 12.0899 12.7775 12.2552 12.8188C12.2883 12.8601 13.1809 12.8601 13.2057 12.8188V12.8105ZM5.445 18.0174C4.96564 18.786 4.92431 19.9349 5.19705 20.2737C5.32929 20.439 5.56071 20.5051 5.73427 20.4555C6.04007 20.3233 6.17231 19.7117 6.09792 19.4885C5.99874 19.3233 5.91609 19.3067 5.81692 19.439C5.60203 19.8687 5.51112 19.5712 5.49459 19.3315C5.46153 18.8769 5.50285 18.4472 5.55244 18.1166C5.61029 17.7777 5.55244 17.8769 5.445 18.0174ZM26.0328 16.7777C25.5699 15.7776 24.9253 14.7858 24.7187 14.4057C24.0954 13.4187 23.4337 12.4564 22.7351 11.5212C22.2392 10.9261 23.5533 11.7692 22.5698 10.5873C22.1979 10.2567 22.1731 10.2484 21.859 9.98395C21.702 9.86825 21.3218 9.66989 21.2557 10.0005C21.2228 10.2374 21.234 10.4784 21.2887 10.7113C21.3218 10.8766 21.5615 11.1493 21.6855 11.3146C23.2558 13.4221 24.6525 15.5627 25.9914 18.2406C26.2063 18.1414 26.1567 16.9512 26.0328 16.7777Z" fill="white"/>
<path fill-rule="evenodd" clip-rule="evenodd" d="M23.9914 20.1415C23.9004 20.2489 24.2145 20.687 24.6278 20.687C25.322 20.6043 25.9253 20.2159 26.4873 19.1993C26.6361 18.9513 26.9006 18.4554 26.9089 18.0505C26.9667 15.7363 26.7931 13.9346 26.446 12.2651C26.4295 12.0998 26.446 11.9014 26.4708 11.8518C26.5121 11.8022 26.6609 11.8518 26.7436 11.7278C26.8593 11.6039 26.4295 10.6038 26.1898 10.2236C26.0989 10.0501 26.0658 9.93436 25.9253 10.2402C25.7683 10.4881 25.6774 10.9261 25.6774 11.3311C26.008 13.6122 26.1154 15.6123 26.3303 17.8852C26.3468 18.1083 26.3138 18.4306 26.165 18.5546C25.5605 19.231 24.8197 19.7718 23.9914 20.1415ZM33.3141 20.1332C32.8182 20.4142 32.8182 20.7448 33.2232 20.7613C33.9092 20.6787 34.7274 20.6208 35.2894 19.7696C35.4382 19.5299 35.62 18.8852 35.6283 18.4968C35.6779 16.1826 35.5952 14.447 35.2481 12.7775C35.2316 12.6122 35.1572 12.2403 35.182 12.1907C35.2316 12.075 35.4547 12.1989 35.5374 12.0667C35.6531 11.951 34.9588 11.0501 34.7109 10.6617C34.62 10.4964 34.5869 10.3807 34.4464 10.6865C34.2894 10.9344 34.2398 11.3807 34.2976 11.7692C34.6696 14.2486 34.9423 16.1082 34.9919 18.2984C34.9671 18.5133 34.9588 18.629 34.8597 18.8852C34.6448 19.1662 34.4051 19.5133 34.1737 19.6786C33.9505 19.8439 33.4712 20.0092 33.3141 20.1332Z" fill="white"/>
<path fill-rule="evenodd" clip-rule="evenodd" d="M33.686 17.91V16.3975C33.6796 16.0206 33.5952 15.6491 33.438 15.3065C33.2893 14.9759 33.3802 14.7197 33.3141 14.3643C33.248 14.0172 33.2645 13.4883 33.1653 13.075C33.1322 12.9097 33.0496 12.3973 33.0827 12.3477C33.1157 12.232 33.2727 12.3477 33.3471 12.2155C33.4628 12.0915 32.9504 10.7691 32.6942 10.3972C32.6033 10.2319 32.438 10.2815 32.2231 10.5625C32.033 10.7361 32.1074 11.1493 32.1818 11.5377C32.6777 14.1247 33.0413 16.4719 32.967 18.9265C32.9422 19.1414 33.6943 18.3067 33.686 17.91ZM30.0247 14.7032C29.7189 14.7032 29.0659 14.0916 28.8676 13.7445C28.8389 13.6608 28.8278 13.5721 28.8349 13.484C28.8421 13.3958 28.8672 13.3101 28.9089 13.232C29.0246 13.1494 29.2064 13.0667 29.3387 13.1494C29.3387 13.1494 29.4709 13.3478 29.4461 13.3725C29.6114 13.4552 29.6941 13.4056 29.7106 13.3312C29.7189 13.2155 29.6527 13.1411 29.6527 13.0006C29.7354 12.6452 30.1486 12.5874 30.2974 12.8188C30.4131 12.9593 30.4544 13.2568 30.471 13.4635C30.471 13.5626 30.3057 13.4387 30.2065 13.4635C30.1156 13.4965 30.0908 13.604 30.0825 13.7031C30.066 13.9676 30.0329 14.3891 30.0247 14.6949V14.7032ZM24.2723 18.5546C24.355 17.7612 24.2475 16.3644 24.2393 15.9016C24.2062 14.8024 24.0244 12.6783 23.9417 12.3312C23.8425 11.6617 24.2145 12.4056 24.1649 12.0171C24.0409 11.3559 23.669 10.8931 23.2392 10.2815C23.0987 10.0914 23.107 10.0501 22.8838 10.3311C22.6524 10.8766 22.859 11.2485 22.9169 11.67C23.2309 13.0502 23.4128 14.3147 23.4954 15.571C23.588 16.8776 23.5991 18.1888 23.5285 19.4968C23.7682 19.5133 24.1483 19.1166 24.2723 18.5546Z" fill="white"/>
<path fill-rule="evenodd" clip-rule="evenodd" d="M34.7522 17.2901C34.1984 16.3727 33.3719 15.3726 33.1488 15.0007C32.4088 13.9618 31.6314 12.9501 30.8181 11.9675C30.1321 11.2485 31.1322 11.8518 30.6859 11.2981C30.3057 10.8848 30.19 10.7526 29.8759 10.5046C29.7106 10.3972 29.6114 10.1988 29.5618 10.5377C29.5371 10.8352 29.5205 11.1824 29.537 11.4386C29.537 11.5791 29.6858 11.8353 29.8098 11.9923C31.4628 14.0337 33.281 16.1247 34.7439 18.7447C34.9505 18.629 34.8844 17.4554 34.7439 17.2901H34.7522Z" fill="white"/>
<path fill-rule="evenodd" clip-rule="evenodd" d="M9.81709 15.5875C9.77576 15.6619 9.68485 15.7528 9.71791 15.8355C9.78403 15.9181 9.83362 15.9429 9.9328 15.9512C10.0154 15.9512 10.1477 15.9677 10.1725 15.9181C10.2023 15.8817 10.2218 15.838 10.2291 15.7915C10.2363 15.745 10.2311 15.6974 10.2138 15.6537C10.1312 15.4222 9.86668 15.5049 9.81709 15.5875Z" fill="#1BA400"/>
<path fill-rule="evenodd" clip-rule="evenodd" d="M28.3635 29.0345C29.099 29.0593 29.5784 29.0675 30.2313 29.1419L30.9917 29.0593C31.843 28.9766 31.8843 30.2742 31.8843 30.2742C31.876 31.0346 31.5785 31.0676 31.2066 31.1503C30.9917 31.1833 30.876 31.0263 30.7685 30.861C30.628 30.9188 30.4379 30.9271 30.1983 30.8941C29.8925 30.8775 29.5867 30.8775 29.2891 30.8527C28.9585 30.8279 28.785 30.8941 28.4626 30.861C28.3882 30.9684 28.2973 31.1089 28.1072 31.0676C27.9419 31.0511 27.7436 30.58 27.8014 30.2329C27.9172 29.9767 27.8841 30.0593 27.8758 29.9436C24.8674 29.8692 21.8425 29.737 18.8919 29.7783C16.5778 29.7783 14.3049 29.8775 12.0321 29.9767C10.8172 29.9601 9.88322 29.7618 9.24683 28.8196C9.30468 28.8196 12.3462 29.0014 13.2305 28.9435C14.8835 28.9188 16.3794 28.7865 18.0572 28.7369C21.3631 28.7948 24.6277 28.7948 27.9337 29.0262C27.6196 28.8113 27.6031 28.2989 28.099 28.1749C28.132 28.1501 28.1568 28.4229 28.2312 28.4229C28.6114 28.3981 28.4461 28.9187 28.3635 29.0345ZM15.1066 10.827C14.6107 12.2568 15.3876 13.8188 15.9331 13.6701C16.3298 13.8354 16.5778 13.0833 16.7431 12.265C16.8505 12.0336 16.9331 12.0088 16.991 12.1245C16.9745 13.2155 17.0737 13.4552 17.3547 13.7858C17.5164 13.9301 17.7243 14.012 17.941 14.0165C18.1577 14.021 18.3689 13.948 18.5365 13.8106L19.0242 13.3147C19.1316 13.2072 19.2721 13.199 19.4291 13.2982C19.5779 13.4387 19.5531 13.6701 19.8754 13.8354C20.1399 13.9428 20.7185 13.8602 20.8507 13.6288C21.0243 13.323 21.0738 13.2155 21.1565 13.0998C21.2805 12.9345 21.4954 13.0006 21.4954 13.0585C21.4788 13.1494 21.3548 13.2486 21.4375 13.4139C21.5863 13.5296 21.6276 13.4552 21.7185 13.4304C22.0326 13.2816 22.2723 12.5874 22.2723 12.5874C22.2805 12.3394 22.14 12.356 22.0491 12.4056L21.8012 12.5791C21.6359 12.6039 21.3383 12.7031 21.1896 12.4717C21.0408 12.1989 21.0325 11.8105 20.9168 11.5295C20.9168 11.5129 20.7185 11.0914 20.9085 11.0666C20.9995 11.0832 21.2061 11.1328 21.2391 10.9675C21.3383 10.8022 21.0243 10.3311 20.8094 10.0914C20.6275 9.89303 20.3631 9.86824 20.1151 10.0749C19.9498 10.2402 19.9664 10.4055 19.9333 10.579C19.9047 10.6996 19.9048 10.8252 19.9335 10.9458C19.9622 11.0663 20.0187 11.1785 20.0986 11.2733C20.2722 11.6121 20.5945 12.0502 20.487 12.6783C20.487 12.6783 20.2969 12.9676 19.9746 12.9262C19.8424 12.8932 19.6275 12.8436 19.5118 11.984C19.4291 11.3311 19.5283 10.422 19.2556 10.0005C19.1564 9.736 19.0903 9.48806 18.8423 9.93436C18.7762 10.0997 18.4952 10.3641 18.6936 10.9096C18.8826 11.39 18.9397 11.9122 18.8589 12.4221C18.7432 12.5956 18.7184 12.6618 18.5613 12.8353C18.3547 13.0585 18.1233 13.0006 17.9497 12.918C17.7844 12.8105 17.6522 12.7527 17.5778 12.3973C17.5943 11.8353 17.6191 10.9179 17.52 10.7195C17.3712 10.422 17.1232 10.5294 17.0158 10.6203C16.5362 11.1522 16.2155 11.8079 16.0901 12.513C15.9496 12.9676 15.8009 12.8436 15.6934 12.6535C15.4372 12.4056 15.4207 10.5129 15.1066 10.827Z" fill="white"/>
<path fill-rule="evenodd" clip-rule="evenodd" d="M16.6108 13.9428C16.8422 13.7775 16.7348 13.6701 17.0737 14.0089C17.5098 14.7758 17.7643 15.6325 17.8175 16.5132C17.7927 16.7198 17.9415 16.8438 18.0076 16.8025C18.0407 16.3231 19.2225 15.6454 20.297 15.5462C20.4623 15.5131 20.3796 15.1991 20.4044 15.0338C20.3383 14.4387 20.735 13.8932 21.3053 13.8519C22.0656 13.9676 22.3219 14.3726 22.3384 14.9925C22.2557 16.1909 21.0077 16.3975 20.3052 16.4801C20.1978 16.5297 20.1565 16.5793 20.3052 16.6372L23.2393 16.6454L23.388 16.7281C23.4045 16.8107 23.3467 16.7446 23.2227 16.9347C23.0987 17.1248 22.9417 17.5711 22.9335 17.8604C22.0538 18.1171 21.1516 18.2887 20.2391 18.3728C19.925 18.5381 19.768 18.753 19.8259 18.9926C19.9333 19.2654 20.6441 19.5299 20.6441 19.5464C20.7763 19.629 20.9334 19.8274 20.6028 20.2241C19.1729 20.1663 18.0654 19.5547 17.6853 18.6951C17.5696 18.6125 17.4373 18.6951 17.3629 18.8108C16.8653 19.5757 16.1479 20.1721 15.305 20.5216C14.7347 20.6622 14.1562 20.439 13.8834 20.0671C13.7016 19.8522 13.7099 19.6208 13.6355 19.5712C13.3297 19.7034 10.6932 20.8274 11.032 20.3068C11.6684 19.6125 12.7842 19.1084 13.7595 18.4306C13.8421 18.2075 13.9661 17.4389 14.3545 17.1909C14.3711 17.1909 14.2884 17.6372 14.2967 17.8273C14.2967 17.9843 14.2884 18.0422 14.3215 18.0009C14.3876 17.9595 15.5777 17.0256 15.6686 16.7363C15.7843 16.571 15.7017 16.1578 15.7017 16.1413C15.4868 15.5627 15.1727 15.5214 15.057 15.2321C14.9496 14.852 14.9992 14.4222 15.2141 14.2982C15.4042 14.1246 15.6273 14.1412 15.8422 14.3313C16.0901 14.5462 16.2968 14.9677 16.3629 15.2817C16.3216 15.4057 16.0488 15.1991 15.9496 15.2652C16.1149 15.4305 16.1976 15.6371 16.2554 15.8851C16.4207 16.5462 16.3629 16.7942 16.2141 17.224C15.6852 18.3315 15.0074 18.6703 14.4124 19.0753C14.3958 19.0836 14.3876 19.3646 14.6107 19.5133C14.6934 19.596 14.9992 19.629 15.3546 19.5133C16.1276 19.0865 16.753 18.4352 17.148 17.6455C17.2555 17.0504 17.1067 16.4223 16.9497 15.8768C16.7695 15.4417 16.6041 15.0007 16.4538 14.5544C16.4373 14.2238 16.4621 14.1081 16.6191 13.9428H16.6108ZM8.94104 10.8518C9.27163 11.0088 9.90803 10.9344 9.88323 10.3972L9.8667 10.141C9.80058 9.97568 9.61049 10.017 9.56917 10.1906C9.55264 10.2402 9.59396 10.3311 9.54437 10.3559C9.51131 10.3807 9.40387 10.3641 9.41213 10.2154C9.41213 10.1658 9.37908 10.1162 9.35428 10.0831C9.32949 10.0749 9.32122 10.0666 9.2799 10.0666C9.23031 10.0666 9.23857 10.0831 9.20551 10.1245L9.18072 10.2484C9.18072 10.3063 9.15592 10.3228 9.1146 10.3311C9.07328 10.3311 9.08154 10.3311 9.04848 10.3145C9.02369 10.2897 8.99889 10.2815 8.99889 10.2402L8.98236 10.1079C8.96035 10.0835 8.93158 10.0663 8.89971 10.0583C8.70962 10.0583 8.70136 10.2732 8.70962 10.3559C8.69309 10.3641 8.68483 10.7443 8.94104 10.8518Z" fill="white"/>
<path fill-rule="evenodd" clip-rule="evenodd" d="M18.8258 15.0338C19.1564 15.1991 19.9664 15.0999 19.768 14.5792L19.7515 14.3313C19.6854 14.166 19.5035 14.2073 19.4539 14.3726C19.4457 14.4222 19.4787 14.5131 19.4292 14.5379C19.4044 14.571 19.2969 14.5544 19.2969 14.4057C19.2969 14.3561 19.2639 14.3065 19.2391 14.2734C19.2225 14.2569 19.206 14.2569 19.1647 14.2569C19.1234 14.2569 19.1234 14.2652 19.0986 14.3065L19.0738 14.4305C19.0655 14.4883 19.0407 14.5131 19.0076 14.5131C18.9581 14.5131 18.9746 14.5131 18.9333 14.4966C18.9167 14.4718 18.8837 14.4635 18.8837 14.4222C18.8837 14.3809 18.8837 14.3147 18.8671 14.2899C18.8506 14.2652 18.8175 14.2569 18.7845 14.2486C18.6027 14.2486 18.5861 14.4552 18.5944 14.5379C18.5861 14.5544 18.5779 14.9263 18.8258 15.0338ZM24.5947 13.2982C24.9253 13.4635 25.5617 13.3891 25.5369 12.8519L25.5204 12.5957C25.4542 12.4304 25.2641 12.4717 25.2228 12.637C25.2063 12.6948 25.2476 12.7775 25.198 12.8023C25.165 12.8353 25.0575 12.8188 25.0658 12.67C25.0658 12.6204 25.0245 12.5709 25.0079 12.5378C24.9831 12.5295 24.9749 12.5213 24.9253 12.5213C24.884 12.5213 24.884 12.5378 24.8592 12.5791L24.8344 12.7031C24.8344 12.7527 24.8096 12.7775 24.7683 12.7857C24.7269 12.7857 24.7352 12.7857 24.7021 12.7609C24.6773 12.7444 24.6525 12.7279 24.6525 12.6948C24.6525 12.6535 24.6443 12.5874 24.6277 12.5543C24.6112 12.5295 24.5864 12.5213 24.5451 12.513C24.3633 12.513 24.355 12.7279 24.3633 12.8023C24.3467 12.8188 24.3385 13.199 24.5947 13.2982ZM27.57 17.6537C26.9915 18.3149 27.2477 19.4059 27.3799 19.6373C27.5783 20.034 27.7271 20.282 28.1073 20.4721C28.4544 20.72 28.7189 20.563 28.8676 20.3894C29.2147 20.034 29.2147 19.1166 29.38 18.9348C29.4958 18.6042 29.7768 18.6621 29.9173 18.8108C30.0449 18.9904 30.2153 19.1353 30.4132 19.2323C30.7355 19.5133 31.1157 19.5629 31.4959 19.315C31.7521 19.1662 31.9256 18.9761 32.0744 18.6042C32.2397 18.1496 32.157 16.0669 32.1157 14.8354C32.1074 14.7362 31.7851 13.1329 31.7851 13.1163C31.7851 13.0998 31.7355 12.2981 31.7025 12.108C31.7025 12.0336 31.6777 12.0088 31.7603 12.0254C31.843 12.0915 31.8595 12.0998 31.9091 12.1246C31.9917 12.1411 32.0744 11.9923 32.0248 11.8518L31.2148 10.3641C31.157 10.3063 31.0743 10.2402 30.9669 10.3889C30.9044 10.4435 30.8543 10.5108 30.8201 10.5864C30.7858 10.6619 30.7683 10.744 30.7685 10.827C30.7933 11.1824 30.8512 11.5377 30.876 11.8931L31.2066 13.6949C31.3058 14.9842 31.3306 16.0338 31.4297 17.3314C31.4132 17.8686 31.2479 18.348 31.0826 18.4058C31.0826 18.4058 30.8429 18.5546 30.6859 18.4058C30.5619 18.348 30.0908 17.6124 30.0908 17.6124C29.8429 17.3893 29.6941 17.4471 29.5123 17.6124C29.0495 18.067 28.8346 18.9265 28.5122 19.5133C28.4296 19.6456 28.1899 19.7613 27.9337 19.5051C27.2725 18.5959 27.661 17.3232 27.5783 17.6537H27.57ZM24.7435 10.141C25.0493 10.265 25.2559 10.8848 25.1898 11.1824C25.1319 11.546 24.9666 11.951 24.8592 11.8931C24.7269 11.8518 24.9418 11.5295 24.8178 11.1906C24.7517 10.9757 24.3385 10.5708 24.3798 10.4551C24.2972 10.2071 24.5616 10.0997 24.7435 10.141Z" fill="white"/>
<path fill-rule="evenodd" clip-rule="evenodd" d="M28.5535 18.0174C28.6114 17.2736 28.5039 16.8272 28.4874 16.3975C28.4709 15.9677 27.9915 12.6783 27.9088 12.3477C27.7849 11.7278 28.3634 12.265 28.2973 11.9014C28.0989 11.4468 27.6113 10.7856 27.4543 10.3972C27.3634 10.2319 27.3964 10.0749 27.1898 10.3476C27.0114 10.8391 26.9492 11.3653 27.008 11.8849C27.5039 14.4718 28.008 16.6206 27.9254 19.0836C28.1651 19.0836 28.4378 18.5463 28.5535 18.0091V18.0174ZM33.7108 11.1823C33.9918 11.3229 34.1488 12.0915 34.124 12.3064C34.0662 12.7113 33.9174 13.1329 33.81 13.0833C33.7025 13.0337 33.8348 12.4882 33.7769 12.3229C33.719 12.0832 33.3471 11.6534 33.3802 11.5212C33.3058 11.2567 33.5455 11.141 33.7108 11.1906V11.1823ZM13.2387 16.6206C13.5032 16.7281 13.652 17.2818 13.6272 17.4471C13.5776 17.7447 13.4371 18.0587 13.3379 18.0257C13.2305 17.9843 13.3544 17.5876 13.3048 17.4636C13.28 17.1578 12.9164 17.0008 12.9247 16.8768C12.8585 16.6289 13.0817 16.5876 13.2387 16.6289V16.6206Z" fill="white"/>
<path fill-rule="evenodd" clip-rule="evenodd" d="M19.611 17.4719C19.9416 17.4885 20.1151 17.7612 19.8011 17.8686C19.487 17.9761 19.1812 18.0587 19.1812 18.5133C19.2969 19.1497 19.0159 18.9265 18.8506 18.8439C18.6605 18.7034 18.115 18.3728 18.0406 17.6455C18.0324 17.4802 18.1646 17.3314 18.3795 17.3314C18.7101 17.4141 19.1895 17.4306 19.6027 17.4719H19.611Z" fill="#1B9D00"/>
<path fill-rule="evenodd" clip-rule="evenodd" d="M6.19709 9.95917C6.58554 10.0749 6.61033 10.6452 6.57727 10.8187C6.52768 11.1245 6.38718 11.4468 6.288 11.4055C6.18056 11.3725 6.288 10.9592 6.23841 10.827C6.18056 10.6452 5.84997 10.3146 5.89129 10.2154C5.80864 10.017 6.04006 9.92611 6.19709 9.96743V9.95917ZM13.8751 12.6535C13.5776 12.8188 13.4619 13.2982 13.6437 13.5792C13.8173 13.8271 14.09 13.7362 14.1314 13.7362C14.4206 13.7693 14.5942 13.1825 14.5942 13.1825C14.5942 13.1825 14.6025 13.0172 14.2636 13.3312C14.1148 13.356 14.0983 13.3064 14.057 13.2238C14.0217 13.0683 14.0392 12.9055 14.1066 12.761C14.1562 12.6205 14.0404 12.5543 13.8751 12.6535ZM16.1067 9.73602C15.9662 9.84346 15.6604 10.1493 15.6521 10.5047C15.6521 10.703 15.6108 10.703 15.7347 10.8352C15.8339 10.9675 15.9331 10.9592 16.1232 10.86C16.1705 10.8294 16.211 10.7894 16.2423 10.7425C16.2736 10.6956 16.2949 10.6428 16.305 10.5873C16.3546 10.3559 16.0653 10.6947 16.0323 10.4385C15.9662 10.2071 16.148 10.1079 16.3215 9.87652C16.3215 9.71949 16.3215 9.61205 16.1149 9.73602H16.1067ZM17.9167 10.0666C17.8446 10.3565 17.8003 10.6526 17.7844 10.951C17.7348 11.1741 18.0158 11.265 18.1481 10.9757C18.3382 10.4551 18.3382 10.2319 18.3547 10.0088C18.2968 9.67816 18.0654 9.67816 17.9167 10.0583V10.0666ZM29.2808 15.8438C29.3139 15.8024 30.8842 14.6867 30.8842 14.6867C31.0413 14.6371 31.0082 15.2652 30.9338 15.2652C30.4488 15.7353 29.8905 16.1233 29.2808 16.414C29.1982 16.4636 29.1238 15.9843 29.2808 15.8355V15.8438ZM30.7024 15.8355C30.9751 15.9677 31.0909 16.7777 31.0578 16.9926C31.0661 17.4223 30.7933 17.7612 30.6859 17.7033C30.5702 17.6538 30.6941 17.1744 30.6446 17.0091C30.5867 16.7694 30.347 16.3231 30.3883 16.1991C30.3057 15.9264 30.5371 15.7859 30.7024 15.8355ZM21.4127 19.3067C21.5201 19.1414 21.8507 18.9183 21.859 18.9183C22.016 18.8356 22.1648 18.9761 22.1565 18.9679C22.1813 19.1249 22.0574 19.2654 22.0987 19.472C22.1317 19.5547 22.1565 19.6456 22.3136 19.6125C22.5615 19.4224 22.7929 19.4059 23.0409 19.3894C23.231 19.4059 23.231 19.72 23.1153 19.7282C22.6524 19.8274 22.4541 19.9514 22.1235 20.0754C21.9664 20.1663 21.8342 20.0506 21.8342 20.0423C21.8342 20.034 21.7516 19.9514 21.8094 19.7448C21.8177 19.5795 21.7516 19.4968 21.6193 19.5134C21.5119 19.5629 21.421 19.596 21.3714 19.4803C21.3466 19.3976 21.3466 19.3563 21.4127 19.3067ZM32.3471 19.7365C32.4132 19.8192 32.4628 19.9018 32.3471 20.0423L32.0496 20.2902C31.9917 20.3894 31.9669 20.5217 32.124 20.563C32.4132 20.6456 33.091 20.2076 33.091 20.1993C33.1984 20.1167 33.1653 19.9597 33.1488 19.9597C33.091 19.8853 32.9422 19.9266 32.8513 19.9183C32.8017 19.9183 32.6529 19.8935 32.719 19.7613C32.7852 19.6786 32.8017 19.6291 32.843 19.5216C32.8926 19.4224 32.8513 19.3563 32.686 19.2985C32.5207 19.2737 32.4546 19.2902 32.2727 19.2985C32.1653 19.3233 32.1322 19.3646 32.1074 19.4886C32.124 19.6704 32.2314 19.6621 32.3554 19.7365H32.3471Z" fill="white"/>
<path fill-rule="evenodd" clip-rule="evenodd" d="M21.4705 15.1908C21.4292 15.2735 21.2804 15.2652 21.1399 15.1908C20.9994 15.1164 20.9333 14.9842 20.9746 14.9098C21.0159 14.8354 21.1647 14.8354 21.3052 14.9098C21.4457 14.9842 21.5118 15.1164 21.4705 15.1908ZM14.3379 10.9096C14.2553 10.9344 14.1478 10.86 14.0983 10.7443C14.0487 10.6286 14.0735 10.5377 14.1561 10.5129C14.2388 10.4881 14.3462 10.5708 14.3958 10.6782C14.4454 10.7857 14.4206 10.8931 14.3379 10.9096Z" fill="#259F00"/>
<path fill-rule="evenodd" clip-rule="evenodd" d="M28.4461 30.0262C29.1899 30.0593 29.9007 30.0345 30.6445 30.0758C30.785 30.1833 30.6859 30.4725 30.5949 30.4478L29.9668 30.4312C29.9668 30.1915 29.347 30.2329 29.3717 30.4395C29.0412 30.4808 28.7436 30.4312 28.413 30.4147C28.3138 30.2907 28.3304 30.0758 28.4461 30.0262Z" fill="#209000"/>
</g>
</svg>
