<svg width="61" height="26" viewBox="0 0 61 26" fill="none" xmlns="http://www.w3.org/2000/svg">
<path d="M11.1814 3.51029C10.4678 4.35473 9.32606 5.02076 8.18429 4.92561C8.04156 3.78384 8.60056 2.57071 9.25469 1.82142C9.9683 0.953203 11.2171 0.334744 12.2281 0.28717C12.347 1.47651 11.8831 2.64207 11.1814 3.51029ZM12.2162 5.15159C10.563 5.05644 9.14765 6.09117 8.36269 6.09117C7.56583 6.09117 6.36459 5.19916 5.05631 5.22295C3.35555 5.24673 1.77372 6.2101 0.905504 7.74435C-0.878511 10.8129 0.44166 15.3562 2.16621 17.8538C3.01064 19.0907 4.02158 20.4465 5.35365 20.399C6.61435 20.3514 7.11388 19.5783 8.63624 19.5783C10.1705 19.5783 10.6105 20.399 11.9426 20.3752C13.3222 20.3514 14.1905 19.1383 15.0349 17.9013C15.9983 16.4979 16.3908 15.1302 16.4145 15.0588C16.3908 15.035 13.7504 14.0241 13.7266 10.9794C13.7028 8.43417 15.808 7.22104 15.9031 7.14968C14.7138 5.38945 12.8584 5.19916 12.2162 5.15159ZM21.7666 1.70249V20.2444H24.6448V13.9052H28.6291C32.2685 13.9052 34.8256 11.4075 34.8256 7.79193C34.8256 4.17632 32.3161 1.70249 28.7242 1.70249H21.7666ZM24.6448 4.12875H27.9631C30.4607 4.12875 31.8879 5.46081 31.8879 7.80382C31.8879 10.1468 30.4607 11.4908 27.9512 11.4908H24.6448V4.12875ZM40.0825 20.3871C41.8903 20.3871 43.5673 19.4713 44.3284 18.0203H44.3879V20.2444H47.052V11.015C47.052 8.33903 44.9112 6.61448 41.6167 6.61448C38.5601 6.61448 36.3004 8.36281 36.2171 10.7653H38.8099C39.024 9.62352 40.0825 8.87423 41.5335 8.87423C43.2937 8.87423 44.2809 9.69488 44.2809 11.2053V12.2282L40.689 12.4423C37.347 12.6444 35.5392 14.0122 35.5392 16.3909C35.5392 18.7934 37.4065 20.3871 40.0825 20.3871ZM40.8555 18.1868C39.3213 18.1868 38.346 17.4494 38.346 16.3195C38.346 15.154 39.2856 14.476 41.0815 14.369L44.2809 14.1668V15.2134C44.2809 16.9499 42.8061 18.1868 40.8555 18.1868ZM50.6082 25.2872C53.415 25.2872 54.7352 24.2168 55.8889 20.9699L60.9436 6.79288H58.0178L54.6281 17.7467H54.5687L51.1791 6.79288H48.17L53.0463 20.2919L52.7847 21.1126C52.3446 22.5041 51.631 23.0393 50.3584 23.0393C50.1324 23.0393 49.6924 23.0155 49.514 22.9917V25.2158C49.6805 25.2634 50.3941 25.2872 50.6082 25.2872Z" fill="black"/>
</svg>
