<svg width="75" height="26" viewBox="0 0 75 26" fill="none" xmlns="http://www.w3.org/2000/svg">
<path d="M31.7279 14.7034H0.0141602V25.2683H31.7279V14.7034Z" fill="#84B740"/>
<path d="M31.7279 0.28717H0.0141602V10.8616H31.7279V0.28717Z" fill="#259BD6"/>
<path d="M63.4414 23.1215L63.3002 23.1497C62.8106 23.2439 62.6317 23.2815 62.2738 23.2815C61.4452 23.2815 60.4659 22.8578 60.4659 20.8616C60.4659 19.8352 60.6354 18.4699 62.1797 18.4699H62.1891C62.4527 18.4887 62.7541 18.5169 63.319 18.6864L63.4414 18.7241V23.1215ZM63.6957 13.1685L63.4414 13.2156V16.9068L63.2155 16.8408L63.1495 16.822C62.8953 16.7467 62.3115 16.5772 61.7465 16.5772C58.658 16.5772 58.0083 18.9124 58.0083 20.871C58.0083 23.5546 59.5149 25.0989 62.142 25.0989C63.2531 25.0989 64.0723 24.9859 64.901 24.7128C65.6637 24.468 65.9367 24.1196 65.9367 23.3757V12.7825C65.2023 12.9143 64.4396 13.0461 63.6957 13.1685Z" fill="#27292D"/>
<path d="M72.6224 23.1874L72.4906 23.225L72.0198 23.3474C71.5772 23.4604 71.1817 23.5264 70.8804 23.5264C70.1554 23.5264 69.7222 23.1685 69.7222 22.5565C69.7222 22.161 69.9011 21.4925 71.0876 21.4925H72.6224V23.1874ZM71.5395 16.5301C70.5885 16.5301 69.6092 16.6996 68.3945 17.0763L67.6036 17.3117L67.8672 19.1007L68.6393 18.8465C69.4491 18.5829 70.4567 18.4134 71.21 18.4134C71.549 18.4134 72.5847 18.4134 72.5847 19.5339V20.0235H71.1441C68.5169 20.0235 67.3022 20.8616 67.3022 22.6601C67.3022 24.1949 68.4228 25.1177 70.306 25.1177C70.8898 25.1177 71.6996 25.0047 72.3964 24.8352L72.4341 24.8258L72.4717 24.8352L72.7071 24.8729C73.4416 25.0047 74.2043 25.1365 74.9482 25.2778V19.4021C74.9482 17.5 73.7994 16.5301 71.5395 16.5301Z" fill="#27292D"/>
<path d="M54.327 23.1874L54.1952 23.225L53.7243 23.3474C53.2818 23.4604 52.8957 23.5264 52.585 23.5264C51.8599 23.5264 51.4268 23.1685 51.4268 22.5565C51.4268 22.161 51.6057 21.4925 52.7827 21.4925H54.3176V23.1874H54.327ZM53.2535 16.5301C52.2931 16.5301 51.3232 16.6996 50.1085 17.0763L49.3176 17.3117L49.5812 19.1007L50.3534 18.8465C51.1631 18.5829 52.1707 18.4134 52.924 18.4134C53.263 18.4134 54.2987 18.4134 54.2987 19.5339V20.0235H52.8581C50.2309 20.0235 49.0068 20.8616 49.0068 22.6601C49.0068 24.1949 50.1274 25.1177 52.02 25.1177C52.6038 25.1177 53.4136 25.0047 54.1104 24.8352L54.1481 24.8258L54.1857 24.8352L54.4117 24.8729C55.1556 25.0047 55.9089 25.1365 56.6528 25.2872V19.4115C56.6622 17.4906 55.5134 16.5301 53.2535 16.5301Z" fill="#27292D"/>
<path d="M44.4115 16.5489C43.2156 16.5489 42.2269 16.9444 41.8597 17.1139L41.7655 17.161L41.6808 17.0951C41.1723 16.7278 40.4284 16.5395 39.3927 16.5395C38.4793 16.5395 37.6224 16.6713 36.6902 16.9444C35.8898 17.1892 35.5791 17.5753 35.5791 18.3003V25.0141H38.0838V18.8088L38.2062 18.7712C38.7147 18.6017 39.016 18.5734 39.3079 18.5734C40.033 18.5734 40.4002 18.9595 40.4002 19.7128V25.0235H42.8672V19.6092C42.8672 19.289 42.8013 19.1007 42.7919 19.0631L42.7072 18.903L42.8767 18.8277C43.2533 18.6582 43.6676 18.5734 44.1008 18.5734C44.5998 18.5734 45.193 18.7712 45.193 19.7128V25.0235H47.6507V19.468C47.6507 17.5 46.5961 16.5489 44.4115 16.5489Z" fill="#27292D"/>
<path d="M70.7769 7.17983C70.4097 7.17983 69.7976 7.14216 69.3174 7.048L69.1762 7.01975V3.39452C69.1762 3.0932 69.1197 2.90487 69.1103 2.87662L69.0349 2.72597L69.195 2.66005C69.2327 2.64122 69.2703 2.6318 69.3174 2.61297L69.3457 2.59414C69.4022 2.57531 69.4587 2.55648 69.5152 2.53764C69.5434 2.52823 69.5622 2.51881 69.5811 2.51881C70.1366 2.36815 70.6451 2.38698 70.8711 2.36815H70.8805C72.4153 2.36815 72.5942 3.7335 72.5942 4.75986C72.5848 6.7561 71.5961 7.17983 70.7769 7.17983ZM70.7675 0.28717C70.7487 0.28717 70.7204 0.28717 70.7016 0.28717C69.2609 0.28717 67.7826 0.682653 67.2553 1.45478C66.9728 1.83143 66.8127 2.30224 66.8033 2.85779V6.59602C66.8033 6.91617 66.7374 7.03858 66.728 7.06683L66.6432 7.22691H62.0952V4.62804H62.0858C62.0293 1.88792 60.4097 0.381332 58.0651 0.381332H57.792H55.7769C55.6828 1.04988 55.6074 1.52069 55.5133 2.18924H57.792C58.9878 2.18924 59.6187 3.20619 59.6187 4.76928V7.38698L59.4587 7.30224C59.4304 7.29282 59.2327 7.22691 58.9219 7.22691H54.986C54.9106 7.72597 54.8165 8.37568 54.7129 9.0254H66.8127C67.227 8.94066 67.7072 8.86533 68.1216 8.79941C68.7336 9.10073 69.873 9.26081 70.6545 9.26081C73.2816 9.26081 74.986 7.49998 74.986 4.78811C74.9765 2.1045 73.3287 0.343668 70.7675 0.28717Z" fill="#27292D"/>
<path d="M49.5527 10.1271H49.6657C52.2929 10.1271 53.517 9.2608 53.517 7.12333C53.517 5.58849 52.3964 4.36438 50.5132 4.36438H48.0932C47.3682 4.36438 46.935 3.95007 46.935 3.25327C46.935 2.78246 47.1139 2.19866 48.3004 2.19866H53.5923C53.7053 1.51128 53.7618 1.07813 53.8654 0.390747H48.3663C45.8051 0.390747 44.5151 1.46419 44.5151 3.25327C44.5151 5.02352 45.6356 5.9463 47.5188 5.9463H49.9388C50.6638 5.9463 51.097 6.52069 51.097 7.12333C51.097 7.51881 50.9181 8.33802 49.7411 8.33802H49.3362L41.5866 8.31919H40.1742C38.9783 8.31919 38.1403 7.64122 38.1403 6.06872V4.98585C38.1403 3.34743 38.79 2.33048 40.1742 2.33048H42.4718C42.5753 1.63369 42.6412 1.19112 42.7354 0.53199H39.8729H39.5998C37.2552 0.53199 35.6356 2.1045 35.5791 4.84461V4.94819V6.06872C35.6356 8.80883 37.2552 10.1177 39.5998 10.1177H39.8729H41.888L46.0876 10.1271H48.5923H49.5527Z" fill="#27292D"/>
</svg>
