<svg width="41" height="26" viewBox="0 0 41 26" fill="none" xmlns="http://www.w3.org/2000/svg">
<path d="M25.9813 2.95898H15.019V22.614H25.9813V2.95898Z" fill="#FF5F00"/>
<path d="M15.7149 12.7872C15.7132 10.8942 16.1431 9.02575 16.9721 7.32312C17.8012 5.62049 19.0076 4.12835 20.5 2.95967C18.6518 1.51024 16.4322 0.608863 14.0948 0.35856C11.7575 0.108257 9.3967 0.519132 7.28232 1.54422C5.16794 2.56931 3.38527 4.16725 2.13808 6.1554C0.890887 8.14356 0.229492 10.4417 0.229492 12.7872C0.229492 15.1326 0.890887 17.4308 2.13808 19.4189C3.38527 21.4071 5.16794 23.005 7.28232 24.0301C9.3967 25.0552 11.7575 25.4661 14.0948 25.2158C16.4322 24.9655 18.6518 24.0641 20.5 22.6147C19.0076 21.446 17.8012 19.9538 16.9721 18.2512C16.1431 16.5486 15.7132 14.6801 15.7149 12.7872Z" fill="#EB001B"/>
<path d="M40.7699 12.7872C40.77 15.1326 40.1087 17.4307 38.8615 19.4189C37.6144 21.407 35.8318 23.005 33.7175 24.0301C31.6031 25.0552 29.2424 25.4661 26.9051 25.2158C24.5677 24.9655 22.3481 24.0641 20.5 22.6147C21.9911 21.4448 23.1966 19.9524 24.0255 18.2501C24.8544 16.5477 25.2851 14.6798 25.2851 12.7872C25.2851 10.8945 24.8544 9.02664 24.0255 7.32428C23.1966 5.62191 21.9911 4.12953 20.5 2.95967C22.3481 1.51024 24.5677 0.608858 26.9051 0.358558C29.2424 0.108258 31.6031 0.51914 33.7175 1.54424C35.8318 2.56934 37.6144 4.16729 38.8615 6.15544C40.1087 8.1436 40.77 10.4417 40.7699 12.7872Z" fill="#F79E1B"/>
<path d="M39.5748 20.5325V20.1301H39.7374V20.0481H39.3232V20.1301H39.4859V20.5325H39.5748ZM40.3789 20.5325V20.0473H40.2519L40.1059 20.381L39.9598 20.0473H39.8328V20.5325H39.9224V20.1665L40.0594 20.482H40.1523L40.2893 20.1657V20.5325H40.3789Z" fill="#F79E1B"/>
</svg>
