<svg width="79" height="26" viewBox="0 0 79 26" fill="none" xmlns="http://www.w3.org/2000/svg">
<path d="M39.1235 0.728753L33.9517 24.9076H27.6962L32.8685 0.728753H39.1235ZM65.4401 16.3413L68.7324 7.26168L70.627 16.3413H65.4401ZM72.4216 24.9076H78.2057L73.1525 0.728753H67.8171C66.6147 0.728753 65.601 1.42593 65.1524 2.50107L55.7666 24.9076H62.3359L63.64 21.2966H71.6641L72.4216 24.9076ZM56.0923 17.014C56.1195 10.6328 47.271 10.2793 47.3303 7.42809C47.3493 6.56178 48.1759 5.63891 49.9825 5.4029C50.8782 5.28761 53.3498 5.19407 56.1516 6.4851L57.2474 1.35578C55.7427 0.811414 53.8061 0.28717 51.3964 0.28717C45.2127 0.28717 40.8626 3.57185 40.8278 8.27917C40.7881 11.7602 43.9352 13.7011 46.3014 14.8605C48.741 16.0455 49.5583 16.8052 49.5464 17.864C49.5295 19.4862 47.6011 20.2046 45.8054 20.2318C42.6589 20.2808 40.8349 19.3813 39.3813 18.7037L38.2458 24.0043C39.7097 24.6743 42.4071 25.2573 45.2001 25.2872C51.7744 25.2872 56.0728 22.0411 56.0923 17.014ZM30.1852 0.728753L20.05 24.9076H13.4388L8.45089 5.61118C8.14853 4.42456 7.88477 3.98842 6.96517 3.48701C5.46096 2.67019 2.97787 1.90613 0.794434 1.43083L0.942355 0.728753H11.586C12.9418 0.728753 14.1616 1.63095 14.4721 3.19281L17.1069 17.1853L23.6137 0.728753H30.1852Z" fill="#1434CB"/>
</svg>
