<svg width="30" height="30" viewBox="0 0 30 30" fill="none" xmlns="http://www.w3.org/2000/svg">
<path d="M27.5 13.8501V15.0001C27.4985 17.6956 26.6256 20.3184 25.0117 22.4774C23.3977 24.6363 21.1291 26.2157 18.5442 26.98C15.9593 27.7442 13.1966 27.6525 10.6681 26.7183C8.1396 25.7842 5.98082 24.0577 4.5137 21.7964C3.04658 19.5351 2.34974 16.8602 2.5271 14.1705C2.70445 11.4808 3.74651 8.92048 5.49785 6.87142C7.24919 4.82235 9.61598 3.3943 12.2452 2.80026C14.8745 2.20621 17.6253 2.478 20.0875 3.57508" stroke="black" stroke-width="2" stroke-linecap="round" stroke-linejoin="round"/>
<path d="M15.1602 17.875C15.2969 17.9844 15.4609 18.0664 15.625 18.0664C15.8164 18.0664 15.9805 17.9844 16.0898 17.875L19.8086 14.1562C19.9453 14.0195 20 13.8555 20 13.6914C20 13.5 19.9453 13.3359 19.8086 13.2266L19.1797 12.625C19.0703 12.4883 18.9062 12.4336 18.7148 12.4336C18.5508 12.4336 18.3867 12.4883 18.25 12.625L15.625 15.25L12.9727 12.625C12.8633 12.4883 12.7266 12.4336 12.5352 12.4336C12.3711 12.4336 12.207 12.4883 12.0703 12.625L11.4414 13.2266C11.332 13.3359 11.25 13.5 11.25 13.6914C11.25 13.8555 11.332 14.0195 11.4414 14.1562L15.1602 17.875Z" fill="black"/>
</svg>
