<svg width="20" height="19" viewBox="0 0 20 19" fill="none" xmlns="http://www.w3.org/2000/svg">
<g clip-path="url(#clip0_72_417)">
<path d="M4.88067 0.833933C4.34211 0.515694 3.84333 0.381052 3.38433 0.430014C2.92533 0.478973 2.56119 0.693172 2.29191 1.07261C2.02263 1.45205 1.88799 1.95389 1.88799 2.57813V16.6419C1.88799 17.2661 2.02263 17.768 2.29191 18.1474C2.56119 18.5269 2.92533 18.7411 3.38433 18.79C3.84333 18.839 4.34211 18.7043 4.88067 18.3861L17.1819 11.3359C17.7204 11.0176 18.0846 10.6504 18.2743 10.2343C18.464 9.81809 18.464 9.40193 18.2743 8.98577C18.0846 8.56961 17.7204 8.20241 17.1819 7.88417L4.88067 0.833933Z" fill="white"/>
</g>
<defs>
<clipPath id="clip0_72_417">
<rect width="18.36" height="18.36" fill="white" transform="matrix(1 0 0 -1 0.969994 18.79)"/>
</clipPath>
</defs>
</svg>
